<svg width="190" height="190" viewBox="0 0 190 190" fill="none" xmlns="http://www.w3.org/2000/svg">
    <circle cx="95" cy="95" r="95" fill="#0D4455"/>
    <path d="M12.7227 111.012C6.4575 81.2115 16.7948 50.3527 39.747 30.342C62.6992 10.3314 94.6768 4.29807 123.339 14.5688C152.007 24.8395 172.873 49.8101 177.899 79.844C185.447 124.968 155.527 167.843 110.572 176.325C65.6197 184.808 22.1359 155.783 12.7227 111.012Z" fill="url(#paint0_linear_0_1)"/>
    <path d="M12.7227 111.012C6.4575 81.2115 16.7948 50.3527 39.747 30.342C62.6992 10.3314 94.6768 4.29807 123.339 14.5688C152.007 24.8395 172.873 49.8101 177.899 79.844C177.246 82.5027 177.459 84.1068 177.644 86.7814C178.126 93.8241 177.83 100.926 176.744 107.901L175.822 107.593C175.211 104.7 176.702 104.84 176.641 102.392C176.462 95.1194 175.974 86.8935 174.564 79.7594C174.365 83.6207 172.034 107.249 170.68 109.518C168.143 105.137 170.701 91.2161 170.047 83.7204L169.869 84.6899C168.796 77.4877 168.253 72.4851 163.2 66.8774C156.841 59.8299 149.092 53.2404 141.138 62.3924C138.677 65.2259 132.929 70.9752 132.943 74.7327C129.347 71.9302 123.552 66.4772 118.726 69.5595C116.34 75.5392 123.139 80.1403 127.168 83.1683C124.212 82.8809 121.757 80.9028 119.248 79.2355C108.681 85.6992 112.964 79.8646 107.581 78.1168C104.144 81.5168 103.085 95.1269 99.4893 96.3831C96.98 102.665 86.8806 135.478 82.7968 137.341C81.5593 137.907 79.0499 137.953 77.7952 137.424C76.8864 137.04 76.5729 136.39 76.2876 135.491C74.1598 128.779 85.6362 107.647 87.19 99.4139C86.9425 95.6158 88.3793 95.2164 88.1662 92.4874C85.9868 88.8798 70.9574 83.9831 66.3876 82.1693C63.8095 84.1756 63.2368 84.7428 60.0578 85.1822C64.1938 82.0806 71.4531 77.8033 71.7357 72.3228C71.0702 69.9164 70.8096 69.6991 68.8928 68.0703C64.937 67.3758 59.8247 72.6652 55.7884 75.4072C54.993 73.722 53.9479 72.472 51.9673 71.9027C31.6936 66.0777 34.8382 58.648 20.5801 77.8343C20.4316 79.8962 19.8328 84.6685 18.9803 86.5188C15.1297 94.8829 23.3363 111.872 20.9053 119.091L20.0507 119.477C19.4671 118.155 19.443 118.056 19.1591 116.635L17.3565 117.618L15.8412 113.602C15.6645 112.869 15.4026 112.274 15.1324 111.571L12.7227 111.012Z" fill="url(#paint1_linear_0_1)"/>
    <path d="M87.19 99.4139C90.7994 91.8047 103.044 53.1819 105.484 51.4018C124.473 37.549 100.129 93.7918 99.6269 95.8194L99.4894 96.3831C96.98 102.665 86.8806 135.478 82.7969 137.341C81.5594 137.907 79.05 137.953 77.7953 137.424C76.8864 137.04 76.5729 136.39 76.2876 135.491C74.1598 128.779 85.6363 107.647 87.19 99.4139Z" fill="#F5F5F0"/>
    <path d="M43.5681 45.4153C49.5755 38.977 53.2193 35.4196 60.9234 30.9264C67.3123 27.2006 89.7819 18.5394 92.14 29.5444C91.5969 32.2087 90.875 32.853 89.1906 34.9734C76.8988 40.3343 67.1178 39.9561 55.6936 50.5094C53.3059 52.9887 47.0022 63.8377 45.4368 63.9271C29.5927 64.8319 39.1365 51.6033 43.5681 45.4153Z" fill="url(#paint2_linear_0_1)"/>
    <path d="M43.5681 45.4153L44.0295 47.2071C48.1002 48.3436 53.1361 48.0748 55.6936 50.5094C53.3059 52.9887 47.0022 63.8377 45.4368 63.9271C29.5927 64.8319 39.1365 51.6033 43.5681 45.4153Z" fill="url(#paint3_linear_0_1)"/>
    <path d="M170.68 109.518C172.034 107.249 174.365 83.6207 174.564 79.7594C175.974 86.8935 176.462 95.1194 176.641 102.392C176.702 104.84 175.211 104.7 175.823 107.593L176.744 107.901C177.827 100.916 178.129 93.8329 177.644 86.7814C177.459 84.1068 177.246 82.5027 177.899 79.844C185.447 124.968 155.527 167.843 110.572 176.325C65.6197 184.808 22.136 155.783 12.7227 111.012L15.1324 111.571C15.4026 112.274 15.6645 112.869 15.8412 113.602C14.6484 120.715 27.2276 145.511 33.3897 148.704L34.1803 148.333C32.4822 144.197 23.9372 137.331 25.8451 133.092C32.6836 133.341 41.8968 150.688 47.7729 154.988C79.6481 178.251 121.861 174.915 149.842 147.209C154.909 142.187 161.351 125.837 165.352 124.335C167.421 125.278 167.614 126.499 169.016 128.769L169.876 128.846C171.065 126.383 176.111 113.823 174.743 111.882C173.451 112.497 171.718 114.773 170.687 115.959C171.333 113.566 170.687 112.279 170.68 109.862V109.518Z" fill="#3B8D8F"/>
    <path d="M127.168 83.1683C123.139 80.1403 116.34 75.5392 118.726 69.5595C123.552 66.4772 129.347 71.9302 132.943 74.7327C137.611 78.1141 154.593 89.1693 155.452 94.0778C153.644 101.059 128 121.097 120.582 119.887C119.296 118.938 118.485 118.663 118.286 116.795C118.072 114.757 118.794 112.832 120.355 111.481C127.319 105.458 135.446 100.406 142.685 94.6677C138.134 91.1983 131.857 86.1289 127.168 83.1683ZM55.7884 75.4072C59.8248 72.6652 64.937 67.3758 68.8929 68.0703C70.8096 69.6991 71.0702 69.9164 71.7357 72.3228C71.4531 77.8033 64.1938 82.0806 60.0578 85.1822C58.0084 86.2376 49.6243 92.7542 47.3122 94.4903C53.7878 100.084 61.0464 104.508 67.7234 109.832C71.0014 112.447 72.4486 114.209 71.0984 118.555C64.3244 124.878 47.636 106.37 41.245 103.021C38.7384 101.707 34.2408 96.4904 34.4594 93.2053C37.0774 88.2624 50.3524 79.5215 55.7884 75.4072Z" fill="#F5F5F0"/>
    <defs>
        <linearGradient id="paint0_linear_0_1" x1="99.1249" y1="169.069" x2="91.0593" y2="61.2429" gradientUnits="userSpaceOnUse">
            <stop stop-color="#135865"/>
            <stop offset="1" stop-color="#4EA89F"/>
        </linearGradient>
        <linearGradient id="paint1_linear_0_1" x1="96.4093" y1="113.695" x2="87.381" y2="10.4731" gradientUnits="userSpaceOnUse">
            <stop stop-color="#298C87"/>
            <stop offset="1" stop-color="#94DBCA"/>
        </linearGradient>
        <linearGradient id="paint2_linear_0_1" x1="65.056" y1="50.376" x2="68.4803" y2="22.8085" gradientUnits="userSpaceOnUse">
            <stop stop-color="#84C8BA"/>
            <stop offset="1" stop-color="#D2F0E6"/>
        </linearGradient>
        <linearGradient id="paint3_linear_0_1" x1="43.155" y1="62.6235" x2="48.1999" y2="47.3634" gradientUnits="userSpaceOnUse">
            <stop stop-color="#5DACA4"/>
            <stop offset="1" stop-color="#81C8BB"/>
        </linearGradient>
    </defs>
</svg>
